<mxfile host="app.diagrams.net" modified="2024-05-18T16:10:00.876Z" agent="Mozilla/5.0 (Windows NT 10.0; Win64; x64) AppleWebKit/537.36 (KHTML, like Gecko) Chrome/124.0.0.0 Safari/537.36" etag="CEndKDlzLAqJ823GMED5" version="24.4.4" type="google">
  <diagram name="PÃ¡gina-1" id="gswBor8_pJMUdEudTqKR">
    <mxGraphModel grid="1" page="1" gridSize="10" guides="1" tooltips="1" connect="1" arrows="1" fold="1" pageScale="1" pageWidth="827" pageHeight="1169" math="0" shadow="0">
      <root>
        <mxCell id="0" />
        <mxCell id="1" parent="0" />
        <mxCell id="t0dpMG9h4XQfjw-dovHz-1" value="NotaFiscalController" style="swimlane;fontStyle=1;align=center;verticalAlign=top;childLayout=stackLayout;horizontal=1;startSize=26;horizontalStack=0;resizeParent=1;resizeParentMax=0;resizeLast=0;collapsible=1;marginBottom=0;whiteSpace=wrap;html=1;" vertex="1" parent="1">
          <mxGeometry x="340" y="110" width="340" height="80" as="geometry" />
        </mxCell>
        <mxCell id="t0dpMG9h4XQfjw-dovHz-3" value="" style="line;strokeWidth=1;fillColor=none;align=left;verticalAlign=middle;spacingTop=-1;spacingLeft=3;spacingRight=3;rotatable=0;labelPosition=right;points=[];portConstraint=eastwest;strokeColor=inherit;" vertex="1" parent="t0dpMG9h4XQfjw-dovHz-1">
          <mxGeometry y="26" width="340" height="8" as="geometry" />
        </mxCell>
        <mxCell id="t0dpMG9h4XQfjw-dovHz-4" value="-&amp;nbsp;salvarNotaFiscal(NotaFiscalVO) :&amp;nbsp;NotaFiscalDTO&lt;div&gt;-&amp;nbsp;listarNotasFiscais() : String&lt;/div&gt;" style="text;strokeColor=none;fillColor=none;align=left;verticalAlign=top;spacingLeft=4;spacingRight=4;overflow=hidden;rotatable=0;points=[[0,0.5],[1,0.5]];portConstraint=eastwest;whiteSpace=wrap;html=1;" vertex="1" parent="t0dpMG9h4XQfjw-dovHz-1">
          <mxGeometry y="34" width="340" height="46" as="geometry" />
        </mxCell>
        <mxCell id="t0dpMG9h4XQfjw-dovHz-10" value="INotaFiscalService" style="swimlane;fontStyle=1;align=center;verticalAlign=top;childLayout=stackLayout;horizontal=1;startSize=26;horizontalStack=0;resizeParent=1;resizeParentMax=0;resizeLast=0;collapsible=1;marginBottom=0;whiteSpace=wrap;html=1;" vertex="1" parent="1">
          <mxGeometry x="-20" y="270" width="300" height="80" as="geometry" />
        </mxCell>
        <mxCell id="t0dpMG9h4XQfjw-dovHz-12" value="" style="line;strokeWidth=1;fillColor=none;align=left;verticalAlign=middle;spacingTop=-1;spacingLeft=3;spacingRight=3;rotatable=0;labelPosition=right;points=[];portConstraint=eastwest;strokeColor=inherit;" vertex="1" parent="t0dpMG9h4XQfjw-dovHz-10">
          <mxGeometry y="26" width="300" height="8" as="geometry" />
        </mxCell>
        <mxCell id="t0dpMG9h4XQfjw-dovHz-13" value="-&amp;nbsp;salvarNotaFiscal(NotaFiscalVO) :&amp;nbsp;NotaFiscalDTO&lt;div&gt;-&amp;nbsp;listarNotasFiscais() : String&lt;/div&gt;" style="text;strokeColor=none;fillColor=none;align=left;verticalAlign=top;spacingLeft=4;spacingRight=4;overflow=hidden;rotatable=0;points=[[0,0.5],[1,0.5]];portConstraint=eastwest;whiteSpace=wrap;html=1;" vertex="1" parent="t0dpMG9h4XQfjw-dovHz-10">
          <mxGeometry y="34" width="300" height="46" as="geometry" />
        </mxCell>
        <mxCell id="t0dpMG9h4XQfjw-dovHz-14" value="NotaFiscalServiceImpl" style="swimlane;fontStyle=1;align=center;verticalAlign=top;childLayout=stackLayout;horizontal=1;startSize=26;horizontalStack=0;resizeParent=1;resizeParentMax=0;resizeLast=0;collapsible=1;marginBottom=0;whiteSpace=wrap;html=1;" vertex="1" parent="1">
          <mxGeometry x="360" y="270" width="300" height="80" as="geometry" />
        </mxCell>
        <mxCell id="t0dpMG9h4XQfjw-dovHz-16" value="" style="line;strokeWidth=1;fillColor=none;align=left;verticalAlign=middle;spacingTop=-1;spacingLeft=3;spacingRight=3;rotatable=0;labelPosition=right;points=[];portConstraint=eastwest;strokeColor=inherit;" vertex="1" parent="t0dpMG9h4XQfjw-dovHz-14">
          <mxGeometry y="26" width="300" height="8" as="geometry" />
        </mxCell>
        <mxCell id="t0dpMG9h4XQfjw-dovHz-17" value="-&amp;nbsp;salvarNotaFiscal(NotaFiscalVO) :&amp;nbsp;NotaFiscalDTO&lt;div&gt;-&amp;nbsp;listarNotasFiscais() : String&lt;/div&gt;" style="text;strokeColor=none;fillColor=none;align=left;verticalAlign=top;spacingLeft=4;spacingRight=4;overflow=hidden;rotatable=0;points=[[0,0.5],[1,0.5]];portConstraint=eastwest;whiteSpace=wrap;html=1;" vertex="1" parent="t0dpMG9h4XQfjw-dovHz-14">
          <mxGeometry y="34" width="300" height="46" as="geometry" />
        </mxCell>
        <mxCell id="t0dpMG9h4XQfjw-dovHz-18" value="NotalFiscalRepository" style="swimlane;fontStyle=1;align=center;verticalAlign=top;childLayout=stackLayout;horizontal=1;startSize=26;horizontalStack=0;resizeParent=1;resizeParentMax=0;resizeLast=0;collapsible=1;marginBottom=0;whiteSpace=wrap;html=1;" vertex="1" parent="1">
          <mxGeometry x="430" y="463" width="160" height="34" as="geometry" />
        </mxCell>
        <mxCell id="t0dpMG9h4XQfjw-dovHz-20" value="" style="line;strokeWidth=1;fillColor=none;align=left;verticalAlign=middle;spacingTop=-1;spacingLeft=3;spacingRight=3;rotatable=0;labelPosition=right;points=[];portConstraint=eastwest;strokeColor=inherit;" vertex="1" parent="t0dpMG9h4XQfjw-dovHz-18">
          <mxGeometry y="26" width="160" height="8" as="geometry" />
        </mxCell>
        <mxCell id="t0dpMG9h4XQfjw-dovHz-22" value="ClienteRepository" style="swimlane;fontStyle=1;align=center;verticalAlign=top;childLayout=stackLayout;horizontal=1;startSize=26;horizontalStack=0;resizeParent=1;resizeParentMax=0;resizeLast=0;collapsible=1;marginBottom=0;whiteSpace=wrap;html=1;" vertex="1" parent="1">
          <mxGeometry y="463" width="280" height="80" as="geometry" />
        </mxCell>
        <mxCell id="t0dpMG9h4XQfjw-dovHz-24" value="" style="line;strokeWidth=1;fillColor=none;align=left;verticalAlign=middle;spacingTop=-1;spacingLeft=3;spacingRight=3;rotatable=0;labelPosition=right;points=[];portConstraint=eastwest;strokeColor=inherit;" vertex="1" parent="t0dpMG9h4XQfjw-dovHz-22">
          <mxGeometry y="26" width="280" height="8" as="geometry" />
        </mxCell>
        <mxCell id="t0dpMG9h4XQfjw-dovHz-25" value="-&amp;nbsp;findByCpf(String) :&amp;nbsp;Optional&amp;lt;ClienteEntity&amp;gt;&lt;div&gt;-&amp;nbsp;findByEmail(String) : ClienteEntity&lt;/div&gt;" style="text;strokeColor=none;fillColor=none;align=left;verticalAlign=top;spacingLeft=4;spacingRight=4;overflow=hidden;rotatable=0;points=[[0,0.5],[1,0.5]];portConstraint=eastwest;whiteSpace=wrap;html=1;" vertex="1" parent="t0dpMG9h4XQfjw-dovHz-22">
          <mxGeometry y="34" width="280" height="46" as="geometry" />
        </mxCell>
        <mxCell id="t0dpMG9h4XQfjw-dovHz-26" value="CobrancaService" style="swimlane;fontStyle=1;align=center;verticalAlign=top;childLayout=stackLayout;horizontal=1;startSize=26;horizontalStack=0;resizeParent=1;resizeParentMax=0;resizeLast=0;collapsible=1;marginBottom=0;whiteSpace=wrap;html=1;" vertex="1" parent="1">
          <mxGeometry x="810" y="350" width="290" height="70" as="geometry" />
        </mxCell>
        <mxCell id="t0dpMG9h4XQfjw-dovHz-28" value="" style="line;strokeWidth=1;fillColor=none;align=left;verticalAlign=middle;spacingTop=-1;spacingLeft=3;spacingRight=3;rotatable=0;labelPosition=right;points=[];portConstraint=eastwest;strokeColor=inherit;" vertex="1" parent="t0dpMG9h4XQfjw-dovHz-26">
          <mxGeometry y="26" width="290" height="8" as="geometry" />
        </mxCell>
        <mxCell id="t0dpMG9h4XQfjw-dovHz-29" value="-&amp;nbsp;enviar(NotaFiscalEntity) :&amp;nbsp;void" style="text;strokeColor=none;fillColor=none;align=left;verticalAlign=top;spacingLeft=4;spacingRight=4;overflow=hidden;rotatable=0;points=[[0,0.5],[1,0.5]];portConstraint=eastwest;whiteSpace=wrap;html=1;" vertex="1" parent="t0dpMG9h4XQfjw-dovHz-26">
          <mxGeometry y="34" width="290" height="36" as="geometry" />
        </mxCell>
        <mxCell id="t0dpMG9h4XQfjw-dovHz-30" value="OrgaoGovernoService" style="swimlane;fontStyle=1;align=center;verticalAlign=top;childLayout=stackLayout;horizontal=1;startSize=26;horizontalStack=0;resizeParent=1;resizeParentMax=0;resizeLast=0;collapsible=1;marginBottom=0;whiteSpace=wrap;html=1;" vertex="1" parent="1">
          <mxGeometry x="810" y="240" width="250" height="70" as="geometry" />
        </mxCell>
        <mxCell id="t0dpMG9h4XQfjw-dovHz-32" value="" style="line;strokeWidth=1;fillColor=none;align=left;verticalAlign=middle;spacingTop=-1;spacingLeft=3;spacingRight=3;rotatable=0;labelPosition=right;points=[];portConstraint=eastwest;strokeColor=inherit;" vertex="1" parent="t0dpMG9h4XQfjw-dovHz-30">
          <mxGeometry y="26" width="250" height="8" as="geometry" />
        </mxCell>
        <mxCell id="t0dpMG9h4XQfjw-dovHz-33" value="-&amp;nbsp;validarNotaFiscal(NotaFiscalVO) :&amp;nbsp;void" style="text;strokeColor=none;fillColor=none;align=left;verticalAlign=top;spacingLeft=4;spacingRight=4;overflow=hidden;rotatable=0;points=[[0,0.5],[1,0.5]];portConstraint=eastwest;whiteSpace=wrap;html=1;" vertex="1" parent="t0dpMG9h4XQfjw-dovHz-30">
          <mxGeometry y="34" width="250" height="36" as="geometry" />
        </mxCell>
        <mxCell id="t0dpMG9h4XQfjw-dovHz-34" value="" style="endArrow=block;dashed=1;endFill=0;endSize=12;html=1;rounded=0;entryX=1;entryY=0.5;entryDx=0;entryDy=0;exitX=0;exitY=0.5;exitDx=0;exitDy=0;" edge="1" parent="1" source="t0dpMG9h4XQfjw-dovHz-17" target="t0dpMG9h4XQfjw-dovHz-13">
          <mxGeometry width="160" relative="1" as="geometry">
            <mxPoint x="310" y="350" as="sourcePoint" />
            <mxPoint x="470" y="350" as="targetPoint" />
          </mxGeometry>
        </mxCell>
        <mxCell id="t0dpMG9h4XQfjw-dovHz-40" value="" style="endArrow=open;html=1;endSize=12;startArrow=diamondThin;startSize=14;startFill=0;edgeStyle=orthogonalEdgeStyle;align=left;verticalAlign=bottom;rounded=0;" edge="1" parent="1">
          <mxGeometry x="-1" y="3" relative="1" as="geometry">
            <mxPoint x="510" y="350" as="sourcePoint" />
            <mxPoint x="510" y="460" as="targetPoint" />
          </mxGeometry>
        </mxCell>
        <mxCell id="t0dpMG9h4XQfjw-dovHz-42" value="" style="endArrow=open;html=1;endSize=12;startArrow=diamondThin;startSize=14;startFill=0;edgeStyle=orthogonalEdgeStyle;align=left;verticalAlign=bottom;rounded=0;" edge="1" parent="1">
          <mxGeometry x="-1" y="3" relative="1" as="geometry">
            <mxPoint x="510" y="190" as="sourcePoint" />
            <mxPoint x="509.5" y="270" as="targetPoint" />
          </mxGeometry>
        </mxCell>
        <mxCell id="t0dpMG9h4XQfjw-dovHz-43" value="" style="endArrow=open;html=1;endSize=12;startArrow=diamondThin;startSize=14;startFill=0;edgeStyle=orthogonalEdgeStyle;align=left;verticalAlign=bottom;rounded=0;entryX=0.5;entryY=0;entryDx=0;entryDy=0;" edge="1" parent="1" target="t0dpMG9h4XQfjw-dovHz-22">
          <mxGeometry x="-1" y="3" relative="1" as="geometry">
            <mxPoint x="478" y="350" as="sourcePoint" />
            <mxPoint x="460" y="350" as="targetPoint" />
            <Array as="points">
              <mxPoint x="478" y="410" />
              <mxPoint x="140" y="410" />
            </Array>
          </mxGeometry>
        </mxCell>
        <mxCell id="t0dpMG9h4XQfjw-dovHz-44" value="" style="endArrow=open;html=1;endSize=12;startArrow=diamondThin;startSize=14;startFill=0;edgeStyle=orthogonalEdgeStyle;align=left;verticalAlign=bottom;rounded=0;exitX=1.01;exitY=0.239;exitDx=0;exitDy=0;exitPerimeter=0;entryX=0;entryY=0.5;entryDx=0;entryDy=0;" edge="1" parent="1" source="t0dpMG9h4XQfjw-dovHz-17" target="t0dpMG9h4XQfjw-dovHz-33">
          <mxGeometry x="-1" y="3" relative="1" as="geometry">
            <mxPoint x="680" y="350" as="sourcePoint" />
            <mxPoint x="840" y="350" as="targetPoint" />
          </mxGeometry>
        </mxCell>
        <mxCell id="t0dpMG9h4XQfjw-dovHz-45" value="" style="endArrow=open;html=1;endSize=12;startArrow=diamondThin;startSize=14;startFill=0;edgeStyle=orthogonalEdgeStyle;align=left;verticalAlign=bottom;rounded=0;exitX=1.007;exitY=0.696;exitDx=0;exitDy=0;exitPerimeter=0;entryX=0;entryY=0.5;entryDx=0;entryDy=0;" edge="1" parent="1" source="t0dpMG9h4XQfjw-dovHz-17" target="t0dpMG9h4XQfjw-dovHz-29">
          <mxGeometry x="-1" y="3" relative="1" as="geometry">
            <mxPoint x="680" y="350" as="sourcePoint" />
            <mxPoint x="840" y="350" as="targetPoint" />
          </mxGeometry>
        </mxCell>
        <mxCell id="t0dpMG9h4XQfjw-dovHz-46" value="ClienteEntity" style="swimlane;fontStyle=1;align=center;verticalAlign=top;childLayout=stackLayout;horizontal=1;startSize=26;horizontalStack=0;resizeParent=1;resizeParentMax=0;resizeLast=0;collapsible=1;marginBottom=0;whiteSpace=wrap;html=1;" vertex="1" parent="1">
          <mxGeometry x="25" y="620" width="230" height="128" as="geometry" />
        </mxCell>
        <mxCell id="t0dpMG9h4XQfjw-dovHz-47" value="+ id: Long&lt;div&gt;+&amp;nbsp;nome : String&lt;/div&gt;&lt;div&gt;+&amp;nbsp;cpf :&amp;nbsp;String&lt;/div&gt;&lt;div&gt;+&amp;nbsp;notasFiscais :&amp;nbsp;List&amp;lt;NotaFiscalEntity&amp;gt;&lt;/div&gt;&lt;div&gt;+&amp;nbsp;email :&amp;nbsp;String&lt;/div&gt;&lt;div&gt;+&amp;nbsp;senha :&amp;nbsp;String&lt;/div&gt;" style="text;strokeColor=none;fillColor=none;align=left;verticalAlign=top;spacingLeft=4;spacingRight=4;overflow=hidden;rotatable=0;points=[[0,0.5],[1,0.5]];portConstraint=eastwest;whiteSpace=wrap;html=1;" vertex="1" parent="t0dpMG9h4XQfjw-dovHz-46">
          <mxGeometry y="26" width="230" height="94" as="geometry" />
        </mxCell>
        <mxCell id="t0dpMG9h4XQfjw-dovHz-48" value="" style="line;strokeWidth=1;fillColor=none;align=left;verticalAlign=middle;spacingTop=-1;spacingLeft=3;spacingRight=3;rotatable=0;labelPosition=right;points=[];portConstraint=eastwest;strokeColor=inherit;" vertex="1" parent="t0dpMG9h4XQfjw-dovHz-46">
          <mxGeometry y="120" width="230" height="8" as="geometry" />
        </mxCell>
        <mxCell id="t0dpMG9h4XQfjw-dovHz-50" value="NotaFiscalEntity" style="swimlane;fontStyle=1;align=center;verticalAlign=top;childLayout=stackLayout;horizontal=1;startSize=26;horizontalStack=0;resizeParent=1;resizeParentMax=0;resizeLast=0;collapsible=1;marginBottom=0;whiteSpace=wrap;html=1;" vertex="1" parent="1">
          <mxGeometry x="395" y="610" width="230" height="128" as="geometry" />
        </mxCell>
        <mxCell id="t0dpMG9h4XQfjw-dovHz-51" value="+ id: Long&lt;div&gt;&lt;div&gt;+ numero : Long&lt;/div&gt;&lt;div&gt;+ data : LocalDateTime&lt;/div&gt;&lt;div&gt;+ formaPagamento : String&lt;/div&gt;&lt;div&gt;+ cliente : ClienteEntity&lt;/div&gt;&lt;/div&gt;" style="text;strokeColor=none;fillColor=none;align=left;verticalAlign=top;spacingLeft=4;spacingRight=4;overflow=hidden;rotatable=0;points=[[0,0.5],[1,0.5]];portConstraint=eastwest;whiteSpace=wrap;html=1;" vertex="1" parent="t0dpMG9h4XQfjw-dovHz-50">
          <mxGeometry y="26" width="230" height="94" as="geometry" />
        </mxCell>
        <mxCell id="t0dpMG9h4XQfjw-dovHz-52" value="" style="line;strokeWidth=1;fillColor=none;align=left;verticalAlign=middle;spacingTop=-1;spacingLeft=3;spacingRight=3;rotatable=0;labelPosition=right;points=[];portConstraint=eastwest;strokeColor=inherit;" vertex="1" parent="t0dpMG9h4XQfjw-dovHz-50">
          <mxGeometry y="120" width="230" height="8" as="geometry" />
        </mxCell>
        <mxCell id="t0dpMG9h4XQfjw-dovHz-55" value="" style="endArrow=open;html=1;endSize=12;startArrow=diamondThin;startSize=14;startFill=1;edgeStyle=orthogonalEdgeStyle;align=left;verticalAlign=bottom;rounded=0;" edge="1" parent="1">
          <mxGeometry x="-1" y="3" relative="1" as="geometry">
            <mxPoint x="140" y="620" as="sourcePoint" />
            <mxPoint x="139.5" y="543" as="targetPoint" />
          </mxGeometry>
        </mxCell>
        <mxCell id="t0dpMG9h4XQfjw-dovHz-56" value="" style="endArrow=open;html=1;endSize=12;startArrow=diamondThin;startSize=14;startFill=1;edgeStyle=orthogonalEdgeStyle;align=left;verticalAlign=bottom;rounded=0;exitX=0.5;exitY=0;exitDx=0;exitDy=0;" edge="1" parent="1" source="t0dpMG9h4XQfjw-dovHz-50">
          <mxGeometry x="-1" y="3" relative="1" as="geometry">
            <mxPoint x="510" y="574" as="sourcePoint" />
            <mxPoint x="509.5" y="497" as="targetPoint" />
          </mxGeometry>
        </mxCell>
        <mxCell id="t0dpMG9h4XQfjw-dovHz-57" value="" style="endArrow=open;endFill=1;endSize=12;html=1;rounded=0;" edge="1" parent="1">
          <mxGeometry width="160" relative="1" as="geometry">
            <mxPoint x="254" y="690" as="sourcePoint" />
            <mxPoint x="400" y="690" as="targetPoint" />
          </mxGeometry>
        </mxCell>
        <mxCell id="t0dpMG9h4XQfjw-dovHz-58" value="1.1" style="edgeLabel;html=1;align=center;verticalAlign=middle;resizable=0;points=[];" connectable="0" vertex="1" parent="t0dpMG9h4XQfjw-dovHz-57">
          <mxGeometry x="-0.863" y="-4" relative="1" as="geometry">
            <mxPoint y="6" as="offset" />
          </mxGeometry>
        </mxCell>
        <mxCell id="t0dpMG9h4XQfjw-dovHz-59" value="1.*" style="edgeLabel;html=1;align=center;verticalAlign=middle;resizable=0;points=[];" connectable="0" vertex="1" parent="t0dpMG9h4XQfjw-dovHz-57">
          <mxGeometry x="0.726" y="-2" relative="1" as="geometry">
            <mxPoint y="7" as="offset" />
          </mxGeometry>
        </mxCell>
      </root>
    </mxGraphModel>
  </diagram>
</mxfile>
